<?xml version="1.0" encoding="UTF-8" standalone="no"?>
<!-- Created with Inkscape (http://www.inkscape.org/) -->

<svg
   width="453.76901"
   height="200"
   viewBox="0 0 120.05972 52.916666"
   version="1.1"
   id="svg1"
   xml:space="preserve"
   xmlns="http://www.w3.org/2000/svg"
   xmlns:svg="http://www.w3.org/2000/svg"><defs
     id="defs1" /><g
     id="layer1"><g
       id="text1"
       style="font-size:36.4943px;line-height:0.6;font-family:'Clash Display';-inkscape-font-specification:'Clash Display';stroke-width:2.55497;stroke-linecap:round;stroke-linejoin:round"
       aria-label="Betreg"><path
         d="m 54.150848,24.451115 c 5.839089,0 8.211218,-2.664084 8.211218,-6.78794 0,-3.39397 -2.335635,-5.656617 -7.225871,-5.839088 v -0.364943 c 4.452304,-0.182472 6.094548,-2.4086243 6.094548,-5.5471342 0,-3.8319016 -2.62759,-5.91207670979 -7.919264,-5.91207670979 H 37.764907 V 24.451115 Z M 44.589342,6.1674699 h 7.80978 c 1.423278,0 1.970692,0.4379316 1.970692,1.569255 0,1.1313233 -0.401437,1.5327606 -1.788221,1.5327606 h -7.992251 z m 0,8.7221381 h 8.685643 c 1.678738,0 2.153164,0.328449 2.153164,1.678738 0,1.386783 -0.51092,1.715232 -2.153164,1.715232 h -8.685643 z m 29.487421,9.92645 c 6.204031,0 10.108921,-2.88305 10.108921,-6.970412 v -0.437931 h -6.860928 v 0.401437 c 0,1.094829 -0.729886,1.569255 -3.503453,1.569255 -2.919544,0 -3.90489,-0.620403 -4.014373,-2.846556 h 14.415249 c 0.07299,-0.656897 0.109483,-1.131323 0.109483,-1.751726 0,-5.9120768 -4.050868,-9.087081 -10.400876,-9.087081 -6.131043,0 -10.473864,3.5764415 -10.473864,9.561507 0,6.897423 4.379316,9.561507 10.619841,9.561507 z M 73.784809,10.948223 c 2.554601,0 3.64943,0.547415 3.90489,2.11667 h -7.773286 c 0.291954,-1.569255 1.350289,-2.11667 3.868396,-2.11667 z m 26.129899,13.502892 v -6.167537 h -3.284487 c -1.569255,0 -2.007187,-0.364943 -2.007187,-1.824715 v -4.780754 h 5.291674 V 6.057987 H 94.623034 V 2.8829829 H 87.762106 V 6.057987 h -2.700579 v 5.620122 h 2.700579 v 5.7661 c 0,4.780753 2.737072,7.006906 7.335354,7.006906 z m 8.503202,0 V 13.46633 c 0,-1.459772 0.54742,-2.007186 2.40863,-2.007186 1.78822,0 2.37213,0.547414 2.37213,2.080175 v 2.153163 h 6.86092 v -3.64943 c 0,-3.685924 -1.60575,-6.350008 -5.65661,-6.350008 -3.64943,0 -5.54714,2.1531638 -6.05806,5.182191 h -0.36494 V 6.057987 h -6.423 v 18.393128 z"
         id="path2"
         style="fill:#262626;fill-opacity:1;stroke-width:2.55508126;stroke-dasharray:none" /><path
         d="m 48.019806,46.712637 c 6.204031,0 10.108921,-2.883049 10.108921,-6.970411 v -0.437932 h -6.860928 v 0.401438 c 0,1.094829 -0.729886,1.569255 -3.503453,1.569255 -2.919544,0 -3.90489,-0.620404 -4.014373,-2.846556 h 14.415248 c 0.07299,-0.656897 0.109483,-1.131323 0.109483,-1.751726 0,-5.912077 -4.050867,-9.087081 -10.400875,-9.087081 -6.131043,0 -10.473865,3.576441 -10.473865,9.561507 0,6.897422 4.379316,9.561506 10.619842,9.561506 z M 47.727851,32.844803 c 2.554601,0 3.649431,0.547415 3.904891,2.11667 h -7.773286 c 0.291954,-1.569255 1.350289,-2.11667 3.868395,-2.11667 z m 20.546273,11.459211 c 4.050868,0 5.985066,-1.788221 6.459492,-4.452305 h 0.364943 v 3.868396 c 0,3.102015 -0.693392,3.539947 -3.64943,3.539947 -3.576442,0 -3.758913,-0.364943 -3.758913,-1.861209 h -6.860929 c 0,4.817247 3.722419,7.517826 10.145416,7.517826 7.079894,0 10.984784,-3.102016 10.984784,-9.67099 V 27.954567 H 75.53649 v 4.306327 h -0.364943 c -0.51092,-3.175004 -2.992532,-4.67127 -6.714951,-4.67127 -5.437651,0 -8.722138,3.13851 -8.722138,8.3207 0,5.25518 3.065521,8.39369 8.539666,8.39369 z m -1.605749,-8.39369 c 0,-1.78822 0.875863,-2.408623 4.087362,-2.408623 3.065521,0 4.342822,0.401437 4.342822,2.372129 v 0.25546 c 0,1.934198 -1.277301,2.299141 -4.342822,2.299141 -3.211499,0 -4.087362,-0.693392 -4.087362,-2.518107 z"
         id="path3"
         style="fill:#262626;fill-opacity:1;stroke-width:2.55508126;stroke-dasharray:none" /></g><path
       d="m 17.345775,45.65819 c -3.400895,0 -6.385882,-0.798219 -8.9549535,-2.394651 C 5.8217492,41.667105 3.8170097,39.443236 2.3766023,36.591934 0.93588908,33.740617 0.21553259,30.436432 0.21553259,26.679387 c 0,-2.747298 0.30444455,-5.41674 0.91333331,-8.008323 C 1.7377546,16.07979 2.5843295,13.666592 3.6685897,11.43147 4.7525457,9.1963444 6.0147275,7.2398065 7.4551362,5.5618609 8.8958462,3.8836131 10.455174,2.573071 12.133115,1.6302352 c 1.678249,-0.94313503 3.408349,-1.41470261 5.190303,-1.41470261 1.782265,0 3.512367,0.47156758 5.190307,1.41470261 1.678246,0.9428358 3.237573,2.2533779 4.677981,3.9316257 1.440407,1.6779456 2.702742,3.6344835 3.787,5.8696091 1.083956,2.235122 1.930381,4.64832 2.539268,7.239594 0.608887,2.591583 0.913333,5.261025 0.913333,8.008323 0,3.757045 -0.720206,7.06123 -2.160613,9.912547 -1.440408,2.851302 -3.441497,5.075171 -6.00327,6.671605 -2.561774,1.596432 -5.535656,2.394651 -8.921649,2.394651 z"
       vector-effect="non-scaling-stroke"
       id="path1"
       style="font-size:12px;fill:#262626;fill-rule:evenodd;stroke:#000000;stroke-width:0.114053mm;stroke-linecap:round;fill-opacity:1" /></g></svg>
