<?xml version="1.0" encoding="UTF-8" standalone="no"?>
<!-- Created with Inkscape (http://www.inkscape.org/) -->

<svg
   width="1440"
   height="1440"
   viewBox="0 0 380.99999 381"
   version="1.1"
   id="svg1"
   xml:space="preserve"
   xmlns="http://www.w3.org/2000/svg"
   xmlns:svg="http://www.w3.org/2000/svg"><defs
     id="defs1" /><path
     id="rect1"
     style="fill:#d8d8d8;stroke-width:1.49675;stroke-linecap:round;stroke-linejoin:round"
     d="M 0,0 H 381 V 381 H 0 Z" /><path
     d="m 190.63986,333.30674 c -21.27315,0 -39.94481,-5.01695 -56.01476,-15.05068 C 118.55516,308.22215 106.01523,294.24494 97.005246,276.32402 87.993369,258.40318 83.48739,237.63588 83.48739,214.02231 c 0,-17.26711 1.904419,-34.04493 5.713094,-50.33345 3.808675,-16.28647 9.104108,-31.45377 15.886376,-45.50185 6.78031,-14.04806 14.67541,-26.345134 23.68541,-36.891288 9.01188,-10.548048 18.7657,-18.785025 29.26155,-24.710847 10.49766,-5.927717 21.31975,-8.891616 32.46613,-8.891616 11.14836,0 21.97037,2.963899 32.46622,8.891616 10.49765,5.925822 20.25156,14.162799 29.26155,24.710847 9.00991,10.546154 16.90608,22.843228 23.68827,36.891288 6.78031,14.04808 12.07484,29.21538 15.88352,45.50185 3.80867,16.28852 5.71309,33.06634 5.71309,50.33345 0,23.61357 -4.50507,44.38087 -13.51507,62.30171 -9.0099,17.92092 -21.52706,31.89813 -37.55138,41.93204 -16.02432,10.03373 -34.62637,15.05068 -55.80629,15.05068 z"
     vector-effect="non-scaling-stroke"
     id="path1"
     style="font-size:12px;fill:#262626;fill-opacity:1;fill-rule:evenodd;stroke:none;stroke-width:0.715128mm;stroke-linecap:round" /></svg>
