<?xml version="1.0" encoding="UTF-8" standalone="no"?>
<!-- Created with Inkscape (http://www.inkscape.org/) -->

<svg
   width="100"
   height="132.40401"
   viewBox="0 0 26.458333 35.031893"
   version="1.1"
   id="svg1"
   inkscape:version="1.4.2 (f4327f4, 2025-05-13)"
   sodipodi:docname="betreg logo - mini.svg"
   xmlns:inkscape="http://www.inkscape.org/namespaces/inkscape"
   xmlns:sodipodi="http://sodipodi.sourceforge.net/DTD/sodipodi-0.dtd"
   xmlns="http://www.w3.org/2000/svg"
   xmlns:svg="http://www.w3.org/2000/svg">
  <sodipodi:namedview
     id="namedview1"
     pagecolor="#505050"
     bordercolor="#ffffff"
     borderopacity="1"
     inkscape:showpageshadow="0"
     inkscape:pageopacity="0"
     inkscape:pagecheckerboard="1"
     inkscape:deskcolor="#505050"
     inkscape:document-units="mm"
     showguides="false"
     inkscape:zoom="4.0947643"
     inkscape:cx="23.200359"
     inkscape:cy="68.746326"
     inkscape:window-width="1920"
     inkscape:window-height="1009"
     inkscape:window-x="-8"
     inkscape:window-y="-8"
     inkscape:window-maximized="1"
     inkscape:current-layer="layer1" />
  <defs
     id="defs1" />
  <g
     inkscape:label="Layer 1"
     inkscape:groupmode="layer"
     id="layer1">
    <path
       d="m 13.246244,34.867234 c -2.59712,0 -4.8766403,-0.60957 -6.8385303,-1.82869 -1.96189,-1.21914 -3.49282,-2.9174 -4.5928,-5.09483 -1.10020999,-2.17742 -1.65031999,-4.70069 -1.65031999,-7.56979 0,-2.09799 0.2325,-4.13653 0.69748,-6.11562 0.46497999,-1.97884 1.11146999,-3.8217 1.93947999,-5.5285703 0.82777,-1.70687 1.79164,-3.20099 2.89162,-4.48237 1.10021,-1.28161 2.291,-2.28242 3.57238,-3.00242 1.2816003,-0.72022999 2.6028103,-1.08034999 3.9636103,-1.08034999 1.36104,0 2.68224,0.36012 3.96362,1.08034999 1.2816,0.72 2.4724,1.72081 3.57238,3.00242 1.09997,1.28138 2.06397,2.7755 2.89197,4.48237 0.82777,1.7068703 1.47415,3.5497303 1.93913,5.5285703 0.46498,1.97909 0.69748,4.01763 0.69748,6.11562 0,2.8691 -0.55,5.39237 -1.64998,7.56979 -1.09997,2.17743 -2.62812,3.87569 -4.58444,5.09483 -1.95632,1.21912 -4.22734,1.82869 -6.81308,1.82869 z"
       vector-effect="non-scaling-stroke"
       id="path1"
       style="font-size:12px;fill:#000000;fill-rule:evenodd;stroke:#000000;stroke-width:0.0870975mm;stroke-linecap:round" />
  </g>
</svg>
